<svg width="1200" height="400" viewBox="0 0 1200 400" fill="none" xmlns="http://www.w3.org/2000/svg">
<path fill-rule="evenodd" clip-rule="evenodd" d="M49.9514 332.712C46.8436 332.712 45.2897 332.712 44.2008 332.069C43.2503 331.507 42.5252 330.611 42.1753 329.566C41.7744 328.369 42.1006 326.864 42.7531 323.855C63.0882 230.046 94.4067 144.331 136.451 75.4455C138.92 71.4001 140.155 69.3774 141.754 68.8424C143.095 68.3935 144.709 68.6253 145.869 69.4335C147.251 70.3969 147.86 72.6755 149.078 77.2326C153.061 92.1364 157.105 109.557 159.061 118.157C159.508 120.126 159.732 121.11 160.172 121.792C160.602 122.459 161.02 122.86 161.703 123.264C162.403 123.677 163.509 123.884 165.72 124.299C177.318 126.475 203.938 134.412 210.791 161.934C211.343 164.153 211.62 165.263 212.091 165.949C212.546 166.611 213.004 167.021 213.713 167.401C214.447 167.795 215.437 167.93 217.418 168.201C228.42 169.704 240.919 171.535 255.38 173.997C257.5 174.358 258.56 174.539 259.399 175.116C260.102 175.599 260.73 176.377 261.053 177.165C261.438 178.106 261.391 179.108 261.297 181.112C259.788 213.182 240.839 228.705 202.751 238.997C200.96 239.481 200.064 239.723 199.397 240.192C198.797 240.614 198.331 241.141 197.985 241.787C197.601 242.504 197.475 243.392 197.224 245.168C194.884 261.685 190.974 288.761 185.494 326.395C185.168 328.638 185.004 329.76 184.461 330.601C183.982 331.342 183.3 331.931 182.495 332.297C181.582 332.712 180.448 332.712 178.181 332.712H49.9514Z" fill="url(#paint0_linear_7_126)"/>
<path d="M375.588 191.146C380.245 194.223 382.573 195.762 383.384 197.704C384.092 199.401 384.092 201.311 383.384 203.008C382.573 204.95 380.245 206.489 375.588 209.566L307.446 254.59C301.854 258.284 299.059 260.132 296.741 259.99C294.722 259.866 292.858 258.868 291.639 257.259C290.24 255.412 290.24 252.068 290.24 245.38V155.332C290.24 148.644 290.24 145.3 291.639 143.453C292.858 141.844 294.722 140.847 296.741 140.723C299.059 140.58 301.854 142.428 307.446 146.122L375.588 191.146Z" fill="url(#paint1_linear_7_126)"/>
<path fill-rule="evenodd" clip-rule="evenodd" d="M214.027 330.737C213.879 331.772 214.678 332.712 215.727 332.712H433.397C453.8 332.712 470.34 316.223 470.34 295.883V104.83C470.34 84.4891 453.8 68 433.397 68H177.898C177.183 68 176.662 68.6778 176.845 69.3671L176.967 69.8254C178.858 76.8987 180.751 84.4765 182.437 91.446C183.143 94.3623 183.495 95.8204 184.139 96.9492C184.762 98.0417 185.379 98.7661 186.359 99.5566C187.371 100.373 188.942 101.036 192.086 102.361C200.938 106.094 210.849 111.776 219.463 120.393C221.609 122.539 222.681 123.612 223.615 124.184C224.543 124.752 225.23 125.036 226.289 125.291C227.354 125.546 228.612 125.546 231.127 125.546H397.838C403.011 125.546 405.597 125.546 407.573 126.55C409.311 127.432 410.724 128.841 411.609 130.573C412.616 132.543 412.616 135.121 412.616 140.278V260.434C412.616 265.591 412.616 268.169 411.609 270.139C410.724 271.871 409.311 273.28 407.573 274.162C405.597 275.166 403.011 275.166 397.838 275.166H234.891C230.35 275.166 228.079 275.166 226.252 275.998C224.641 276.731 223.277 277.909 222.319 279.393C221.233 281.078 220.909 283.318 220.261 287.8C218.482 300.096 216.414 314.339 214.057 330.528L214.027 330.737Z" fill="url(#paint2_linear_7_126)"/>
<path fill-rule="evenodd" clip-rule="evenodd" d="M499.177 77.2074C499.177 72.1223 503.313 68 508.413 68H577.235C581.304 68 584.894 70.6549 586.074 74.5372L631.944 225.441L677.814 74.5372C678.994 70.6549 682.584 68 686.653 68H830.842C879.757 68 919.411 107.531 919.411 156.296V247.544C919.411 262.799 931.816 275.166 947.119 275.166C962.422 275.166 974.827 262.799 974.827 247.544V154.319C974.827 106.646 1013.59 68 1061.41 68C1109.23 68 1148 106.646 1148 154.319V323.505C1148 328.59 1143.87 332.712 1138.76 332.712H1099.51C1094.41 332.712 1090.28 328.59 1090.28 323.505V154.319C1090.28 138.428 1077.35 125.546 1061.41 125.546C1045.47 125.546 1032.55 138.428 1032.55 154.319V247.544C1032.55 294.581 994.302 332.712 947.119 332.712C899.936 332.712 861.687 294.581 861.687 247.544V156.296C861.687 139.313 847.877 125.546 830.842 125.546H773.946C768.845 125.546 764.71 129.668 764.71 134.753V176.762C764.71 181.847 768.845 185.97 773.946 185.97H835.134C840.234 185.97 844.37 190.092 844.37 195.177V234.308C844.37 239.393 840.234 243.516 835.134 243.516H773.946C768.845 243.516 764.71 247.638 764.71 252.723V323.505C764.71 328.59 760.575 332.712 755.474 332.712H716.221C711.12 332.712 706.985 328.59 706.985 323.505V176.998L661.553 326.463C660.373 330.345 656.783 333 652.714 333H611.174C607.104 333 603.515 330.345 602.335 326.463L556.902 176.998V323.505C556.902 328.59 552.767 332.712 547.666 332.712H508.413C503.313 332.712 499.177 328.59 499.177 323.505V77.2074Z" fill="url(#paint3_linear_7_126)"/>
<defs>
<linearGradient id="paint0_linear_7_126" x1="42" y1="68" x2="525.766" y2="764.922" gradientUnits="userSpaceOnUse">
<stop stop-color="#4248E8"/>
<stop offset="1" stop-color="#7071E8"/>
</linearGradient>
<linearGradient id="paint1_linear_7_126" x1="42" y1="68" x2="525.766" y2="764.922" gradientUnits="userSpaceOnUse">
<stop stop-color="#4248E8"/>
<stop offset="1" stop-color="#7071E8"/>
</linearGradient>
<linearGradient id="paint2_linear_7_126" x1="42" y1="68" x2="525.766" y2="764.922" gradientUnits="userSpaceOnUse">
<stop stop-color="#4248E8"/>
<stop offset="1" stop-color="#7071E8"/>
</linearGradient>
<linearGradient id="paint3_linear_7_126" x1="42" y1="68" x2="525.766" y2="764.922" gradientUnits="userSpaceOnUse">
<stop stop-color="#4248E8"/>
<stop offset="1" stop-color="#7071E8"/>
</linearGradient>
</defs>
</svg>
